<?xml version="1.0" encoding="utf-8"?>
<!-- Generator: Adobe Illustrator 26.5.0, SVG Export Plug-In . SVG Version: 6.00 Build 0)  -->
<svg version="1.1" id="Layer_1" xmlns="http://www.w3.org/2000/svg" xmlns:xlink="http://www.w3.org/1999/xlink" x="0px" y="0px"
	 viewBox="0 0 256 256" style="enable-background:new 0 0 256 256;" xml:space="preserve">
<style type="text/css">
	.st0{fill:none;stroke:#62C613;stroke-width:3;}
</style>
<polygon class="st0" points="83.3,101.6 68.4,90.1 50.5,95.9 56.8,78.2 45.8,63 64.6,63.5 75.7,48.3 81,66.3 98.9,72.1 83.4,82.8 
	"/>
<polygon class="st0" points="130.8,95.2 112.7,90 98.2,102 97.5,83.2 81.6,73.1 99.3,66.7 104,48.4 115.6,63.2 134.3,62.1 
	123.9,77.7 "/>
<polygon class="st0" points="159.2,101.6 144.3,90.1 126.4,95.9 132.7,78.2 121.7,63 140.5,63.5 151.5,48.3 156.9,66.3 174.7,72.1 
	159.2,82.8 "/>
<polygon class="st0" points="206.6,95.2 188.6,90 174.1,102 173.4,83.2 157.5,73.1 175.1,66.7 179.8,48.4 191.4,63.2 210.2,62.1 
	199.7,77.7 "/>
<polygon class="st0" points="83.3,137.6 68.4,126.1 50.5,131.9 56.8,114.2 45.8,98.9 64.6,99.4 75.7,84.2 81,102.3 98.9,108.1 
	83.4,118.8 "/>
<polygon class="st0" points="130.8,131.1 112.7,126 98.2,138 97.5,119.2 81.6,109.1 99.3,102.6 104,84.4 115.6,99.2 134.3,98 
	123.9,113.6 "/>
<polygon class="st0" points="159.2,137.6 144.3,126.1 126.4,131.9 132.7,114.2 121.7,98.9 140.5,99.4 151.5,84.2 156.9,102.3 
	174.7,108.1 159.2,118.8 "/>
<polygon class="st0" points="206.6,131.1 188.6,126 174.1,138 173.4,119.2 157.5,109.1 175.1,102.6 179.8,84.4 191.4,99.2 210.2,98 
	199.7,113.6 "/>
<polygon class="st0" points="83.3,171.3 68.4,159.9 50.5,165.7 56.8,148 45.8,132.7 64.6,133.2 75.7,118 81,136.1 98.9,141.9 
	83.4,152.5 "/>
<polygon class="st0" points="130.8,164.9 112.7,159.8 98.2,171.8 97.5,153 81.6,142.9 99.3,136.4 104,118.2 115.6,133 134.3,131.8 
	123.9,147.4 "/>
<polygon class="st0" points="159.2,171.3 144.3,159.9 126.4,165.7 132.7,148 121.7,132.7 140.5,133.2 151.5,118 156.9,136.1 
	174.7,141.9 159.2,152.5 "/>
<polygon class="st0" points="206.6,164.9 188.6,159.8 174.1,171.8 173.4,153 157.5,142.9 175.1,136.4 179.8,118.2 191.4,133 
	210.2,131.8 199.7,147.4 "/>
<polygon class="st0" points="83.3,207.3 68.4,195.9 50.5,201.6 56.8,183.9 45.8,168.7 64.6,169.2 75.7,154 81,172 98.9,177.9 
	83.4,188.5 "/>
<polygon class="st0" points="130.8,200.9 112.7,195.7 98.2,207.7 97.5,188.9 81.6,178.9 99.3,172.4 104,154.2 115.6,169 
	134.3,167.8 123.9,183.4 "/>
<polygon class="st0" points="159.2,207.3 144.3,195.9 126.4,201.6 132.7,183.9 121.7,168.7 140.5,169.2 151.5,154 156.9,172 
	174.7,177.9 159.2,188.5 "/>
<polygon class="st0" points="206.6,200.9 188.6,195.7 174.1,207.7 173.4,188.9 157.5,178.9 175.1,172.4 179.8,154.2 191.4,169 
	210.2,167.8 199.7,183.4 "/>
</svg>
