<svg width="256" height="256" viewBox="0 0 256 256" fill="none" xmlns="http://www.w3.org/2000/svg">

<path d="M83.3 101.6L68.4 90.1l-17.9 5.8 6.3-17.7-11-15.2 18.8.5 11.1-15.2 5.3 18 17.9 5.8-15.5 10.7z" fill="none" stroke="#62C613" stroke-width="3"/>
<path d="M130.8 95.2L112.7 90l-14.5 12-.7-18.8-15.9-10.1 17.7-6.4 4.7-18.3 11.6 14.8 18.7-1.1-10.4 15.6z" fill="none" stroke="#62C613" stroke-width="3"/>
<path d="M159.2 101.6l-14.9-11.5-17.9 5.8 6.3-17.7-11-15.2 18.8.5 11-15.2 5.4 18 17.8 5.8-15.5 10.7z" fill="none" stroke="#62C613" stroke-width="3"/>
<path d="M206.6 95.2l-18-5.2-14.5 12-.7-18.8-15.9-10.1 17.6-6.4 4.7-18.3 11.6 14.8 18.8-1.1-10.5 15.6zM83.3 137.6l-14.9-11.5-17.9 5.8 6.3-17.7-11-15.3 18.8.5 11.1-15.2 5.3 18.1 17.9 5.8-15.5 10.7z" fill="none" stroke="#62C613" stroke-width="3"/>
<path d="M130.8 131.1l-18.1-5.1-14.5 12-.7-18.8-15.9-10.1 17.7-6.5 4.7-18.2 11.6 14.8 18.7-1.2-10.4 15.6z" fill="none" stroke="#62C613" stroke-width="3"/>

</svg>
