<svg width="700" height="700" viewBox="0 0 700 700" fill="none" xmlns="http://www.w3.org/2000/svg">

<path d="M607.6,459.2c4.48,0,8.4-3.92,8.4-8.4v-5.6c0-4.48-3.92-8.4-8.4-8.4h-8.4v-27.44c0-6.16-5.04-11.76-11.76-11.76
	c-6.16,0-11.76,5.04-11.76,11.76v27.44h-27.44v-27.44c0-6.16-5.04-11.76-11.76-11.76c-6.16,0-11.76,5.04-11.76,11.76l0,27.44h-27.44
	v-27.44c0-6.16-5.04-11.76-11.76-11.76c-6.16,0-11.76,5.04-11.76,11.76l0.01,27.44h-27.44v-27.44c0-6.16-5.04-11.76-11.76-11.76
	c-6.16,0-11.76,5.04-11.76,11.76l0,27.44h-8.4c-4.48" fill="none" stroke="#62C613" stroke-width="3"/>

<path d="0-8.4,3.92-8.4,8.4v5.6c0,4.48,3.92,8.4,8.4,8.4h8.4v31.92h-8.4
	c-4.48,0-8.4,3.92-8.4,8.4v5.6c0,4.48,3.92,8.4,8.4,8.4h8.4v28.56c0,1.68,1.68,3.36,3.36,3.36h16.24c1.68,0,3.36-1.68,3.36-3.36
	v-28.56h27.44v28.56c0,1.68,1.68,3.36,3.36,3.36h16.24c1.68,0,3.36-1.68,3.36-3.36v-28.56h27.44v28.56c0,1.68,1.68,3.36,3.36,3.36
	h16.24c1.68,0,3.36-1.68,3.36-3.36v-28.56h27.44v28.56c0,1.68,1.68,3.36,3.36,3.36h16.24c1.68" fill="none" stroke="#62C613" stroke-width="3"/>

<path d="0,3.36-1.68,3.36-3.36v-28.56h10.65
	c4.48,0,8.4-3.92,8.4-8.4v-5.6c0-4.48-3.92-8.4-8.4-8.4h-8.4l0-31.92L607.6,459.2z M448,491.12V459.2h27.44v31.92H448z
	 M498.4,491.12V459.2h27.44v31.92H498.4z M575.68,491.12h-27.44V459.2h27.44V491.12z" fill="none" stroke="#62C613" stroke-width="3"/>

</svg>