<?xml version="1.0" encoding="utf-8"?>
<!-- Generator: Adobe Illustrator 26.5.0, SVG Export Plug-In . SVG Version: 6.00 Build 0)  -->
<svg version="1.0" id="Layer_1" xmlns="http://www.w3.org/2000/svg" xmlns:xlink="http://www.w3.org/1999/xlink" x="0px" y="0px"
	 viewBox="0 0 256 256" style="enable-background:new 0 0 256 256;" xml:space="preserve">
<style type="text/css">
	.st0{fill:none;stroke:#000000;stroke-miterlimit:10;}
</style>
<path class="st0" d="M142.5,163.25c4.29-5.48,10.72-10.24,17.38-14.76c3.33-2.38,6.67-4.52,9.52-6.9c6.9,1.67,14.29,1.91,22.38-1.43
	c12.86-5.24,22.38-17.15,23.81-30.96c0.71-8.34-1.19-16.19-5.24-22.62c4.29-6.9,6.43-15.24,5-24.05
	C213.23,48,202.04,36.09,187.51,33c-6.19-1.19-12.14-0.95-17.38,0.71c-10-9.29-23.34-15.24-38.1-15.24
	c-15.72,0-29.77,6.43-39.77,16.91c-7.38-1.91-15.24-2.14-23.81,0.71c-14.29,5-25,17.62-26.91,32.62c-2.14,15.95,5,30.24,16.67,38.58
	c-2.86,5.95-3.81,13.1-1.19,20.72c2.86,8.57,10.24,15.24,18.81,17.38c8.1,2.14,15.48,0.48,21.43-3.33c2.86,1.67,5.72,3.1,8.57,4.52
	c7.86,3.57,13.33,6.67,15.72,10.72c-1.19,28.58-3.57,61.2-8.81,79.3c-1.19,3.81,1.67,7.62,5.72,7.62h27.15
	c4.05,0,6.9-3.81,5.72-7.62C146.31,219.69,143.69,190.4,142.5,163.25L142.5,163.25z"/>
</svg>
