<svg width="700" height="700" viewBox="0 0 700 700" fill="none" xmlns="http://www.w3.org/2000/svg">

<path d="M607.6,459.2c4.48,0,8.4-3.92,8.4-8.4v-5.6c0-4.48-3.92-8.4-8.4-8.4h-8.4v-27.44c0-6.16-5.04-11.76-11.76-11.76
	c-6.16,0-11.76,5.04-11.76,11.76v27.44h-27.44v-27.44c0-6.16-5.04-11.76-11.76-11.76c-6.16,0-11.76,5.04-11.76,11.76l0,27.44h-27.44
	v-27.44c0-6.16-5.04-11.76-11.76-11.76c-6.16,0-11.76,5.04-11.76,11.76l0.01,27.44h-27.44v-27.44c0-6.16-5.04-11.76-11.76-11.76
	c-6.16,0-11.76,5.04-11.76,11.76l0,27.44h-8.4c-4.48,0-8.4,3.92-8.4,8.4v5.6c0,4.48,3.92,8.4,8.4,8.4h8.4v31.92h-8.4
	c-4.48,0-8.4,3.92-8.4,8.4v5.6c0,4.48,3.92,8.4,8.4,8.4h8.4v28.56c0,1.68,1.68,3.36,3.36,3.36h16.24c1.68,0,3.36-1.68,3.36-3.36
	v-28.56h27.44v28.56c0,1.68,1.68,3.36,3.36,3.36h16.24c1.68,0,3.36-1.68,3.36-3.36v-28.56h27.44v28.56c0,1.68,1.68,3.36,3.36,3.36
	h16.24c1.68,0,3.36-1.68,3.36-3.36v-28.56h27.44v28.56c0,1.68,1.68,3.36,3.36,3.36h16.24c1.68,0,3.36-1.68,3.36-3.36v-28.56h10.65
	c4.48,0,8.4-3.92,8.4-8.4v-5.6c0-4.48-3.92-8.4-8.4-8.4h-8.4l0-31.92L607.6,459.2z M448,491.12V459.2h27.44v31.92H448z
	 M498.4,491.12V459.2h27.44v31.92H498.4z M575.68,491.12h-27.44V459.2h27.44V491.12z" fill="none" stroke="#62C613" stroke-width="3"/>
<path d="M283.92,436.8h-8.4v-27.44c0-6.16-5.04-11.76-11.76-11.76c-6.16,0-11.76,5.04-11.76,11.76v27.44h-27.44v-27.44
	c0-6.16-5.04-11.76-11.76-11.76c-6.16,0-11.76,5.04-11.76,11.76l0,27.44H173.6v-27.44c0-6.16-5.04-11.76-11.76-11.76
	c-6.16,0-11.76,5.04-11.76,11.76l0,27.44h-25.76v-27.44c0-6.16-5.04-11.76-11.76-11.76c-6.72,0-11.76,5.6-11.76,12.32v26.88h-8.4
	c-4.48,0-8.4,3.92-8.4,8.4v5.6c0,5.04,3.92,8.4,8.4,8.4h8.4v31.92h-8.4c-4.48,0-8.4,3.92-8.4,8.4v5.6c0,4.48,3.92,8.4,8.4,8.4h8.4
	v28.56c0,1.68,1.68,3.36,3.36,3.36l16.24,0c1.68,0,3.36-1.68,3.36-3.36v-28.56h27.44v28.56c0,1.68,1.68,3.36,3.36,3.36h16.24
	c1.68,0,3.36-1.68,3.36-3.36v-28.56h27.44v28.56c0,1.68,1.68,3.36,3.36,3.36h16.24c1.68,0,3.36-1.68,3.36-3.36v-28.56h27.44v28.56
	c0,1.68,1.68,3.36,3.36,3.36h16.24c1.68,0,3.36-1.68,3.36-3.36v-28.56h8.4c4.48,0,8.4-3.92,8.4-8.4v-5.6c0-4.48-3.92-8.4-8.4-8.4
	h-8.4V459.2h8.4c4.48,0,8.4-3.92,8.4-8.4v-5.6C292.32,440.72,288.39,436.8,283.92,436.8L283.92,436.8z M124.32,491.12V459.2h27.44
	v31.92H124.32z M174.72,491.12V459.2h27.44v31.92H174.72z M252,491.12h-27.44V459.2H252V491.12z" fill="none" stroke="#62C613" stroke-width="3"/>
<path d="M374.64,355.04c10.08-12.88,25.2-24.08,40.88-34.72c7.84-5.6,15.68-10.64,22.4-16.24
	c16.24,3.92,33.6,4.48,52.64-3.36c30.24-12.32,52.64-40.32,56-72.8c1.68-19.6-2.8-38.08-12.32-53.2
	c10.08-16.24,15.12-35.84,11.76-56.56C540.96,84,514.64,56,480.48,48.72c-14.56-2.8-28.56-2.24-40.88,1.68
	c-23.52-21.84-54.88-35.84-89.6-35.84c-36.96,0-70,15.12-93.52,39.76c-17.36-4.48-35.84-5.04-56,1.68
	c-33.6,11.76-58.8,41.44-63.28,76.72c-5.04,37.52,11.76,71.12,39.2,90.72c-6.72,14-8.96,30.8-2.8,48.72
	c6.72,20.16,24.08,35.84,44.24,40.88c19.04,5.04,36.4,1.12,50.4-7.84c6.72,3.92,13.44,7.28,20.16,10.64
	c18.48,8.4,31.36,15.68,36.96,25.2c-2.8,67.2-8.4,143.92-20.72,186.48c-2.8,8.96,3.92,17.92,13.44,17.92h63.84
	c9.52,0,16.24-8.96,13.44-17.92C383.6,487.76,377.44,418.88,374.64,355.04L374.64,355.04z M325.92,310.24
	c-8.96-6.16-19.04-11.2-28.56-15.68c-4.48-2.24-8.4-3.92-12.32-6.16c5.04-6.72,8.4-14.56,10.64-22.96
	c9.52,4.48,20.16,7.84,31.36,9.52C326.48,285.6,326.48,297.92,325.92,310.24L325.92,310.24z M372.4,274.96
	c5.6-1.12,11.2-2.24,16.8-3.92c6.72,8.96,15.12,16.8,24.64,22.4c-3.36,2.8-7.28,5.04-11.2,7.84c-9.52,6.72-19.6,13.44-29.12,21.84
	C372.96,305.76,372.4,289.52,372.4,274.96L372.4,274.96z" fill="none" stroke="#62C613" stroke-width="3"/>

</svg>