<svg width="700" height="700" viewBox="0 0 700 700" fill="none" xmlns="http://www.w3.org/2000/svg">

<path d="M374.64,355.04c10.08-12.88,25.2-24.08,40.88-34.72c7.84-5.6,15.68-10.64,22.4-16.24
	c16.24,3.92,33.6,4.48,52.64-3.36c30.24-12.32,52.64-40.32,56-72.8c1.68-19.6-2.8-38.08-12.32-53.2
	c10.08-16.24,15.12-35.84,11.76-56.56C540.96,84,514.64,56,480.48,48.72c-14.56-2.8-28.56-2.24-40.88,1.68
	c-23.52-21.84-54.88-35.84-89.6-35.84c-36.96,0-70,15.12-93.52,39.76c-17.36-4.48-35.84-5.04-56,1.68
	c-33.6,11.76-58.8,41.44-63.28,76.72c-5.04,37.52,11.76,71.12,39.2,90.72c-6.72,14-8.96,30.8-2.8,48.72
	c6.72,20.16,24.08,35.84,44.24,40.88c19.04,5.04,36.4,1.12,50.4-7.84c6.72,3.92,13.44,7.28,20.16,10.64
	c18.48,8.4,31.36,15.68,36.96,25.2c-2.8,67.2-8.4,143.92-20.72,186.48c-2.8,8.96,3.92,17.92,13.44,17.92h63.84
	c9.52,0,16.24-8.96,13.44-17.92C383.6,487.76,377.44,418.88,374.64,355.04L374.64,355.04z M325.92,310.24
	c-8.96-6.16-19.04-11.2-28.56-15.68c-4.48-2.24-8.4-3.92-12.32-6.16c5.04-6.72,8.4-14.56,10.64-22.96
	c9.52,4.48,20.16,7.84,31.36,9.52C326.48,285.6,326.48,297.92,325.92,310.24L325.92,310.24z M372.4,274.96
	c5.6-1.12,11.2-2.24,16.8-3.92c6.72,8.96,15.12,16.8,24.64,22.4c-3.36,2.8-7.28,5.04-11.2,7.84c-9.52,6.72-19.6,13.44-29.12,21.84
	C372.96,305.76,372.4,289.52,372.4,274.96L372.4,274.96z" fill="none" stroke="#62C613" stroke-width="3"/>

</svg>